<svg xmlns="http://www.w3.org/2000/svg" viewBox="0 0 64 64">
  <defs>
    <linearGradient id="g" x1="0" y1="0" x2="1" y2="1">
      <stop offset="0%" stop-color="#22d3ee"/>
      <stop offset="50%" stop-color="#8b5cf6"/>
      <stop offset="100%" stop-color="#ec4899"/>
    </linearGradient>
    <filter id="glow" x="-20%" y="-20%" width="140%" height="140%">
      <feGaussianBlur stdDeviation="0.8" />
    </filter>
  </defs>
  <rect width="64" height="64" rx="14" fill="url(#g)"/>
  <!-- subtle inner highlight -->
  <rect x="2" y="2" width="60" height="60" rx="12" fill="none" stroke="#fff" stroke-opacity="0.18" stroke-width="1"/>
  <!-- medical cross -->
  <path d="M26 14h12v12h12v12H38v12H26V38H14V26h12z" fill="#fff"/>
  <!-- tiny S-glyph for Saubhagyam (top-right corner) -->
  <circle cx="49" cy="15" r="6" fill="#fff" fill-opacity="0.95"/>
  <path d="M51.6 12.5c-0.4-0.5-1.1-0.8-1.8-0.8c-1.1 0-2 0.7-2 1.6c0 0.9 0.8 1.3 1.7 1.5l0.7 0.15c0.6 0.13 1.1 0.3 1.1 0.7c0 0.4-0.5 0.65-1.1 0.65c-0.7 0-1.3-0.3-1.7-0.8" stroke="#8b5cf6" stroke-width="1.1" fill="none" stroke-linecap="round"/>
</svg>
